<?xml version="1.0" encoding="UTF-8"?>
<svg id="Layer_1" data-name="Layer 1" xmlns="http://www.w3.org/2000/svg" xmlns:xlink="http://www.w3.org/1999/xlink" viewBox="0 0 2282.44 712.08">
  <defs>
    <style>
      .cls-1 {
        fill: url(#linear-gradient-2);
      }

      .cls-1, .cls-2, .cls-3 {
        fill-rule: evenodd;
      }

      .cls-4 {
        fill: #e0bb70;
        font-family: Metropolis-Bold, 'UEKJG A+ Metropolis';
        font-size: 107.26px;
        font-weight: 700;
        letter-spacing: .04em;
      }

      .cls-5, .cls-2 {
        fill: #191919;
      }

      .cls-3 {
        fill: url(#linear-gradient);
      }
    </style>
    <linearGradient id="linear-gradient" x1="329.92" y1="355.67" x2="377.39" y2="355.67" gradientUnits="userSpaceOnUse">
      <stop offset="0" stop-color="#eecd8f"/>
      <stop offset="1" stop-color="#bd9c4d"/>
    </linearGradient>
    <linearGradient id="linear-gradient-2" x1="272.66" y1="395.38" x2="426.66" y2="321.38" xlink:href="#linear-gradient"/>
  </defs>
  <g>
    <path class="cls-5" d="M961.33,356.57h-123.66l-19.37,46.19h-51.77l106.9-255.88h51.77l106.9,255.88h-51.4l-19.37-46.19ZM944.57,316.34l-45.07-107.64-45.07,107.64h90.14Z"/>
    <path class="cls-5" d="M1183.31,402.76l-46.93-64.44-47.3,64.44h-49.54l72.26-98.33-68.91-94.23h49.91l43.95,59.97,43.95-59.97h49.54l-68.91,93.86,72.26,98.7h-50.28Z"/>
    <path class="cls-5" d="M1248.12,155.07c0-13.78,11.55-25.7,26.07-25.7s25.7,11.92,25.7,25.7-11.55,26.07-25.7,26.07-26.07-12.29-26.07-26.07ZM1251.1,210.19h45.44v192.57h-45.44v-192.57Z"/>
    <path class="cls-5" d="M1318.88,378.17l20.49-31.66c18.62,13.41,40.23,22.35,64.44,22.35,18.25,0,30.92-7.82,30.92-19.74,0-14.9-16.76-19.74-38.74-25.7-41.72-10.8-68.16-22.72-68.53-56.99,0-36.13,29.8-60.71,72.63-60.71,26.45,0,52.89,9.31,73.75,23.09l-19,33.15c-18.25-11.55-37.99-17.51-54.75-17.51s-28.31,6.33-28.31,17.13c0,12.29,10.06,16.02,39.48,24.58,32.4,8.94,67.42,20.11,67.42,60.34,0,36.87-30.54,60.71-75.61,60.71-29.43,0-61.08-10.43-84.18-29.05Z"/>
    <path class="cls-5" d="M1585.56,274.63c0-71.89,61.46-132.23,134.46-132.23,37.62,0,71.89,16.02,96.47,41.34l-33.15,30.92c-15.64-18.25-38.74-29.8-63.32-29.8-47.3,0-87.16,40.97-87.16,89.76s39.85,90.14,87.16,90.14c24.96,0,47.68-11.55,63.69-29.8l32.78,30.54c-24.58,25.7-58.85,41.72-96.47,41.72-73,0-134.46-60.71-134.46-132.6Z"/>
    <path class="cls-5" d="M1837.34,146.87h111.37c54.75,0,95.72,35.01,95.72,84.92s-40.97,84.92-95.72,84.92h-64.81v86.04h-46.56v-255.88ZM1943.5,273.88c31.66,0,53.63-16.02,53.63-42.09s-21.98-42.09-53.63-42.09h-59.59v84.18h59.59Z"/>
    <path class="cls-5" d="M2211.67,356.57h-123.66l-19.37,46.19h-51.77l106.9-255.88h51.77l106.9,255.88h-51.4l-19.37-46.19ZM2194.91,316.34l-45.07-107.64-45.07,107.64h90.14Z"/>
  </g>
  <text class="cls-4" transform="translate(766.39 548.11)"><tspan x="0" y="0">FINANCE &amp; OPTIMISATION</tspan></text>
  <path class="cls-2" d="M323.2,141.57c.41.18-.03.97-.13,1.43-.75,3.46-1.78,7.52-2.46,11.15-46.2,8.64-81.57,29.34-109.03,56.91-27.45,27.56-48.1,62.9-56.65,109.16-4.17.97-8.27,2.02-12.58,2.85,4.08-25.62,11.71-48.34,22.3-68.19,10.48-19.64,23.24-37.11,38.25-52.12,22.6-22.6,50-40.69,83.62-52.12,5.65-1.92,11.35-3.72,17.37-5.19,6.16-1.5,12.63-2.82,19.32-3.89Z"/>
  <path class="cls-2" d="M388.93,141.57c38.71,6.07,70.02,20.79,95.94,40.06,8.69,6.46,16.9,13.4,24.37,20.87,14.94,14.94,28.09,32.42,38.37,52.25,10.32,19.9,18.61,42.38,22.3,68.32-4.28-.77-8.17-1.95-12.45-2.72-8.51-46.38-29.24-81.75-56.78-109.29-27.52-27.52-62.7-48.41-109.03-56.91-.83-4.14-1.89-8.05-2.72-12.19-.09-.1-.2-.35,0-.39Z"/>
  <path class="cls-2" d="M325.53,384.39c-108.54-9.45-217.02-18.91-325.53-28.39,53.45-5.03,107.72-9.17,161.92-14.13,54.19-4.96,108.46-9.21,161.79-14.13.55-.05,1.25-.38.91.26-.09.16-.45.43-.65.65-5.63,6.4-10.79,15.48-10.5,27.48.32,13.17,5.82,21.49,12.06,28.26Z"/>
  <path class="cls-3" d="M353.54,332.02c7.24-.02,13.01,3.03,16.85,6.87,3.67,3.67,6.99,9.35,7,16.72.02,10.44-6.67,18.42-13.87,21.65-10.04,4.51-20.58,1.07-26.45-4.8-4.19-4.19-7.98-10.56-7-19.45.26-2.31,1.08-4.95,1.95-6.87,3.26-7.2,10.32-14.11,21.52-14.13Z"/>
  <path class="cls-2" d="M569.78,388.93c-6.26,38.19-20.77,69.56-40.06,95.29-12.99,17.33-27.77,31.98-45.11,44.99-25.62,19.21-56.86,33.4-95.29,39.8.02-2.07.82-4.12,1.3-6.22.48-2.14.84-4.31,1.43-6.35,45.87-8.67,81.01-29.28,108.38-56.65,27.36-27.36,48.1-62.29,56.78-108.12,4.17-.8,8.07-1.87,12.19-2.72.22.03.33-.22.39,0Z"/>
  <path class="cls-2" d="M142.74,388.93c4.19.9,8.34,1.86,12.45,2.85,8.69,45.77,29.45,80.66,56.78,107.99,27.32,27.33,62.3,48.02,108.25,56.53.9,4.28,1.97,8.4,2.85,12.7-25.47-4.05-47.91-11.98-67.67-22.43-19.59-10.36-36.92-23.18-51.86-38.12-14.74-14.74-27.86-31.83-38.25-51.73-7.59-14.55-14.31-30.68-18.8-48.75-1.53-6.17-3.1-12.97-3.76-19.06Z"/>
  <path class="cls-2" d="M327.87,386.34c5.25,4.49,11.7,7.72,19.97,8.95,8.91,1.32,17.31-.6,23.85-3.89,6.25-3.14,11.32-7.5,15.3-13.48,3.91-5.88,6.74-13.04,6.74-22.04,0-17.57-9.89-29.85-21.78-35.91-6.43-3.28-14.95-5.35-23.98-4.02-8.22,1.21-14.64,4.48-19.96,8.82,0,.2-.35.43-.26,0,9.39-108.28,18.96-216.4,28.26-324.76.4,1.61.5,3.27.65,4.93,4.74,52.68,9.03,105.84,13.74,158.68,4.86,54.51,9.57,109.08,14.26,163.61,13.59,1.42,27.24,2.52,40.84,3.76,40.89,3.73,81.89,6.96,122.9,10.63,54.57,4.89,109.26,9.55,163.87,14.26-13.59,1.41-27.24,2.51-40.84,3.76-13.66,1.25-27.3,2.37-40.97,3.5-81.77,6.78-163.74,14.6-245.67,21.39-9.57,109-19.22,218.65-28.52,327.48-.05.18-.23.01-.26-.13-9.29-104.52-17.89-210.2-27.48-315.03-.31-3.43-.78-6.93-.78-10.24,0-.05-.36-.63.13-.26Z"/>
  <path class="cls-1" d="M330.85,109.29c-1.73,7.17-3.27,14.54-5.06,21.65-28,4-52.53,12.15-73.9,23.34-21.28,11.14-39.95,25.05-56.01,41.1-7.95,7.95-15.58,16.79-22.43,26.19-20.32,27.89-35.92,61.71-41.61,103.97-7.26,1.69-14.61,3.28-21.78,5.06,1.46-5.81,3.66-15.04.13-21.13-1.59-2.74-4.29-4.14-7.39-5.19-3.01-1.01-6.64-1.36-9.59-2.98-.92-.51-2.91-1.91-3.11-2.85-.16-.74.35-2.4.65-3.63,1.91-7.91,3.98-15.89,6.35-23.21,6.84-2.91,11.84,2.22,18.8,1.69,6.47-.5,9.47-6.01,11.67-10.63,2.14-4.49,4.93-12.14,1.81-17.63-2.73-4.81-8.35-6.13-12.58-9.59-1.36-1.11-2.46-2.27-2.98-4.02,3.53-7.04,7.81-14.48,12.19-21.39.61-.97,1.33-2.45,1.94-2.72,1.37-.6,3.58.18,4.54.52,5.58,1.95,9.95,7.38,16.72,6.09,5.62-1.07,9.64-6.35,12.57-10.5,1.68-2.38,3.25-5.04,3.89-7.65,2.28-9.31-6.06-12.73-9.85-18.15-.78-1.12-1.66-2.84-1.55-4.15.06-.74.31-1.04.91-1.69,5.34-5.83,10.32-10.82,16.21-16.2.89-.82,1.8-2.07,2.72-2.2,1.95-.28,4.05,1.44,5.32,2.46,3.71,3.01,7.44,9.13,13.74,9.33,4.82.16,8.9-2.59,11.93-4.8,3.42-2.5,6.04-4.73,8.17-8.43,1.22-2.12,1.85-4.05,1.55-6.61-.52-4.56-3.35-7.75-5.18-11.41-1.02-2.03-1.89-4.31-1.43-7,6.73-4.54,13.32-8.31,20.87-12.32,1.11-.59,2.31-1.52,3.11-1.56,1.21-.05,2.72,1.25,3.63,2.2,4.85,5.04,5.72,13.84,14.26,14.65,3.64.34,6.74-.56,9.85-1.69,5.44-1.97,11.18-4.86,13.35-9.72,1.43-3.2.87-6.27,0-9.72-.77-3.05-2.09-6.11-1.68-9.85.08-.71.26-1.88.78-2.46.48-.54,2.73-1.1,3.76-1.43,6.23-1.99,12.23-3.32,18.8-4.93.51-.12.99-.4,1.56-.52.58-.12,1.15-.08,1.69-.26,1.81-.6,3.21,1.79,4.02,3.37.87,1.71,1.38,3.57,1.81,5.19,1.07,4.01,2.14,7.56,4.28,9.72,5.07,5.13,15.06,3.84,22.56,1.69ZM600.38,273.03c-5.67.98-9.69-1.21-12.45-4.8-2.42-3.15-4.33-7.54-5.58-12.19-1.39-5.18-.92-10.27,2.59-13.61,2.7-2.57,7.99-4.58,11.02-7.26,1.01-.9,2.49-2.5,2.46-3.76,0-.34-.3-1.04-.65-1.68-.62-1.14-1.18-2.03-1.68-2.98-1.45-2.73-2.92-5.38-4.28-7.65-2.05-3.41-4.36-7.62-6.74-11.02-.3-.43-.21-.44-.65-.65-1.36-.66-3.49-.08-5.05.52-4.31,1.63-7.88,5.19-12.32,5.96-4.02.7-6.92-.8-9.33-2.59-2.45-1.81-4.39-4.19-5.97-6.22-1.6-2.06-3.55-4.9-4.54-7.65-1.28-3.58-.98-7.1.52-9.85,1.28-2.35,3.29-4.33,5.57-6.61,1.55-1.55,5-4.57,4.8-7.52-.08-1.15-1.3-2.01-2.2-2.98-5.04-5.42-9.65-9.97-14.91-14.91-.85-.8-1.75-2.09-2.85-2.2-1.29-.14-3.34.93-4.41,1.68-1.22.86-2.16,2.03-3.11,2.98-4.21,4.2-8.63,8.92-16.34,6.22-2.98-1.04-5.36-2.56-7.78-4.41-2.33-1.78-4.43-3.64-6.22-5.96-1.68-2.18-3.36-5.13-2.72-9.21.72-4.62,4.17-8.18,5.83-12.45.41-1.05,1.41-3.69.78-5.19-.25-.6-1.8-1.37-2.72-1.94-4.21-2.61-8.01-4.95-12.06-7.13-1-.54-1.92-1.23-2.98-1.82-.86-.47-2.08-.91-3.24-1.55-1.18-.65-2.44-1.59-3.24-1.56-1.44.06-3.28,1.97-4.28,3.24-3.41,4.34-4.9,10.4-10.11,12.7-4.35,1.92-9.99.38-13.48-.91-4.04-1.49-7.89-3.58-10.37-5.96-3.21-3.08-4.06-7.08-2.98-12.19.41-1.94,1.15-3.87,1.69-6.48.41-2.02.77-5.69-.39-7-.43-.49-2.93-1.15-3.76-1.43-2.11-.7-3.9-1.11-5.83-1.69-3.45-1.02-6.85-1.72-10.24-2.59-1.47-.38-6.32-2.04-7.39-1.3-2.4,1.66-3.68,5.4-4.67,9.08-1,3.72-1.99,7.32-4.28,9.46-5.34,5.01-15.48,3.1-22.43,1.3,1.6,7.26,3.34,14.38,4.93,21.65,21.12,2.78,40.29,8.43,57.17,15.56,5.76,2.43,11.45,4.82,16.72,7.65,31.85,17.04,58.08,39.25,78.56,67.29,20.41,27.95,36,61.92,41.74,104.1,3.57.83,7.22,1.76,10.89,2.59,3.7.84,7.43,1.74,11.02,2.33-2.47-6.96-3.64-17.76,1.17-22.82,2.11-2.22,5.75-3.41,9.59-4.41,1.59-.41,3.56-.85,5.32-1.69,1.51-.72,3.59-2.12,3.76-3.37.12-.83-.49-2.15-.78-3.37-.32-1.35-.56-2.63-.78-3.5-1.81-7.1-3.3-13.8-5.7-19.84-5.18-2.12-9.91.74-14.65,1.56ZM228.43,231.41c12.72,20.14,25.67,40.49,38.24,60.54.48.77.86,1.62,1.56,2.2,7.06-1.58,13.99-3.3,21.13-4.8,1.74-7.29,3.46-14.61,5.06-22.04-23.87-15.11-47.79-30.16-71.69-45.25-.08,0-.15.02-.13.13,2.03,2.96,3.89,6.13,5.83,9.2ZM580.41,386.34c-4.06,27.78-12.07,52.2-23.34,73.38-22.47,42.25-54.42,74.45-96.84,96.59-21.32,11.12-45.6,19.43-73.51,23.33-1.67,7.15-3.35,14.28-4.93,21.52,7.41-1.96,17.46-3.19,22.3,1.81,2.06,2.14,3.12,5.73,4.15,9.59.72,2.72,2.47,8.44,5.06,8.82.86.12,2.14-.51,3.37-.78.62-.13,1.23-.12,1.82-.26,6.32-1.55,12.13-3.15,18.28-5.06,1.08-.33,2.46-.53,3.11-1.17,1.03-1.01,1.05-3.75.78-5.71-.79-5.68-4.26-11.36-1.3-16.98,2.59-4.92,9.75-8.16,15.69-9.85,2.13-.61,4.88-1.12,7.52-.78,7.48.99,9.33,8,12.71,12.83.94,1.35,2.82,3.89,4.67,3.89.57,0,2.13-.85,3.24-1.42,3.29-1.7,6.4-3.5,9.2-5.19,3.29-1.98,7.76-4.46,11.02-6.74.44-.31.43-.21.65-.65.44-.9.23-2.37,0-3.37-1.41-6.14-7.1-9.85-6.61-16.72.22-3.14,1.96-5.89,3.76-7.91,1.85-2.08,4.11-3.83,6.35-5.45,2.16-1.56,4.84-3.19,7.65-4.02,7.78-2.29,11.71,2.98,15.56,6.74,1.96,1.92,4.48,4.63,7.39,4.41.69-.05,1.71-1.03,2.72-1.95,5.66-5.14,9.98-9.77,15.17-15.17.86-.89,2.01-1.99,2.07-2.98.13-1.94-1.53-3.89-2.59-5.19-1.12-1.36-2.57-2.83-3.76-4.02-2.42-2.42-5.48-5.46-5.44-10.11.04-5.18,3.28-9.48,5.58-12.45,2.54-3.28,5.88-6.99,9.85-8.3,7-2.31,12.11,3.28,17.11,5.45,1.5.65,4.29,1.35,5.57.78.62-.28,1.41-1.88,1.95-2.72.76-1.2,1.39-2.29,1.81-2.98,3-4.9,5.31-8.58,7.91-13.61.26-.51.62-1.01.91-1.56.36-.68,1.45-2.69,1.43-3.37-.05-1.24-1.46-2.56-2.46-3.5-5.39-5.06-14.26-5.8-14.39-15.43-.05-3.61.96-6.78,2.2-9.85,2.16-5.31,5.29-11.54,11.28-12.7,6.9-1.34,13.34,4.3,20.09,1.56,2.82-8.51,5.29-17.35,7.13-26.84-2.32-3.81-7.85-4.41-12.32-5.83-2.94-.93-5.66-2.14-7.39-4.67-3.37-4.92-2.39-14.27-.65-20.22-6.92,1.33-14.3,3.34-21.52,4.8ZM109.55,402.02c-1.74,2.41-4.44,3.59-7.52,4.54-2.94.9-6.34,1.38-9.08,2.98-1.02.6-2.67,1.6-2.85,2.85-.11.74.37,2.34.65,3.5.83,3.48,1.78,7.08,2.59,10.11,1.28,4.76,2.39,8.93,3.89,13.09,3.94,1.8,8,.21,11.8-.78,3.98-1.04,8.35-1.53,11.8.65,3.35,2.12,5.28,5.85,7,9.72,1.72,3.87,3.7,8.24,2.72,13.48-.91,4.92-4.1,6.95-7.65,9.08-3.33,2-8.3,4.28-8.95,8.04,2.04,4.15,4.03,8.02,6.61,12.32,1.98,3.3,4.14,7.17,6.35,10.5.44.65.72.97,1.3,1.17,2.12.73,5.21-.69,6.87-1.56,3.82-2,7.1-5.16,12.19-5.19,2.49-.01,4.76.97,6.61,2.2,3.19,2.13,6.09,5.59,8.43,9.07,2.11,3.16,4.9,8.23,3.24,13.22-1.8,5.42-7.13,7.95-9.98,12.45-.52.81-1.49,2.06-1.29,3.76.07.67.35.94.91,1.56,4.69,5.16,8.76,9.38,13.74,14,1.05.97,2.73,2.64,3.89,3.63.66.56.89.76,1.56.78,1.74.05,3.32-1.05,4.67-2.07,3.81-2.89,6.74-7.73,11.28-9.21,3.02-.98,6.81-.06,9.08.91,1.97.85,3.75,2,5.32,3.11,3.34,2.36,6.3,4.85,8.43,8.43,1.2,2.02,2.01,3.95,1.81,6.61-.53,7.24-7.43,10.73-6.74,18.67,6.74,4.46,13.51,8.56,21,12.32,1.04.52,2.43,1.56,3.24,1.55,1.09,0,2.29-1.06,2.85-1.55,2.04-1.79,3.22-4.47,4.54-6.74,1.42-2.45,2.84-4.92,4.93-6.48,5.15-3.85,13.18-1.27,17.89.78,2.87,1.25,5.05,2.41,7.13,4.15,2.02,1.68,3.81,4.02,4.28,7.13.75,4.95-2.13,9.67-2.46,14.39-.11,1.51-.15,3.94.78,4.93.47.5,1.92.83,2.98,1.17,1.2.39,2.46.64,3.37.91,5.86,1.72,10.79,3.17,16.85,4.54,1.17.26,2.83.8,3.63.65.92-.18,2.08-1.71,2.72-2.85,2.05-3.62,2.63-9.31,4.28-12.58,1.9-3.76,5.1-5.8,9.85-6.35,4.75-.55,9.51.31,14.39,1.56-1.6-7.26-3.34-14.38-4.93-21.65-14.07-1.76-27.09-4.91-39.28-8.95-36.36-12.03-65.89-31.02-89.97-55.1-7.99-7.99-15.43-16.64-22.3-25.93-20.49-27.71-36-61.26-42-103.07-7.1-1.67-14.25-3.29-21.39-4.93,1.46,6.7,2.71,15.3-1.04,20.48ZM422.12,264.34c-1.49.96-3.14,1.6-4.41,2.85,1.68,7.35,3.39,14.67,5.06,22.04,6.89,1.66,13.85,3.27,20.87,4.8,15.2-23.91,30.36-47.86,45.37-71.95.07,0,.15-.1,0-.13-22.14,14.19-44.86,28.24-66.9,42.39ZM266.03,419.53c-14.55,22.92-28.78,45.96-43.3,68.71.01.15-.19.2,0,.26,0-.08.02-.15.13-.13,23.01-14.4,46.22-29.21,69.1-43.56.77-.48,1.62-.86,2.2-1.56-1.54-6.89-3.22-13.63-4.67-20.61-7.35-1.64-14.69-3.29-21.91-5.06-.71.44-1.12,1.25-1.56,1.94ZM489.14,488.5c-.08,0-.15-.02-.13-.13-13.95-22.04-27.88-44.46-41.88-66.25-.94-1.47-1.61-3.13-2.85-4.41-7.18,1.64-14.31,3.32-21.52,4.93-1.54,7.06-3.19,14-4.8,21,23.61,14.98,47.64,30.23,71.17,44.86Z"/>
</svg>