<?xml version="1.0" encoding="UTF-8"?>
<svg id="Layer_1" data-name="Layer 1" xmlns="http://www.w3.org/2000/svg" xmlns:xlink="http://www.w3.org/1999/xlink" viewBox="0 0 138.91 138.87">
  <defs>
    <style>
      .cls-1 {
        fill: url(#linear-gradient-2);
      }

      .cls-1, .cls-2, .cls-3 {
        fill-rule: evenodd;
      }

      .cls-2 {
        fill: #191919;
      }

      .cls-3 {
        fill: url(#linear-gradient);
      }
    </style>
    <linearGradient id="linear-gradient" x1="64.34" y1="69.36" x2="73.6" y2="69.36" gradientUnits="userSpaceOnUse">
      <stop offset="0" stop-color="#eecd8f"/>
      <stop offset="1" stop-color="#bd9c4d"/>
    </linearGradient>
    <linearGradient id="linear-gradient-2" x1="53.17" y1="77.11" x2="83.21" y2="62.68" xlink:href="#linear-gradient"/>
  </defs>
  <path class="cls-2" d="M63.03,27.61c.08.04,0,.19-.03.28-.15.67-.35,1.47-.48,2.17-9.01,1.69-15.91,5.72-21.26,11.1-5.35,5.37-9.38,12.27-11.05,21.29-.81.19-1.61.39-2.45.56.8-5,2.28-9.43,4.35-13.3,2.04-3.83,4.53-7.24,7.46-10.16,4.41-4.41,9.75-7.94,16.31-10.16,1.1-.37,2.21-.73,3.39-1.01,1.2-.29,2.46-.55,3.77-.76Z"/>
  <path class="cls-2" d="M75.85,27.61c7.55,1.18,13.66,4.05,18.71,7.81,1.69,1.26,3.3,2.61,4.75,4.07,2.91,2.91,5.48,6.32,7.48,10.19,2.01,3.88,3.63,8.26,4.35,13.32-.84-.15-1.59-.38-2.43-.53-1.66-9.04-5.7-15.94-11.07-21.31-5.37-5.37-12.23-9.44-21.26-11.1-.16-.81-.37-1.57-.53-2.38-.02-.02-.04-.07,0-.08Z"/>
  <path class="cls-2" d="M63.49,74.96c-21.17-1.84-42.32-3.69-63.49-5.54,10.42-.98,21.01-1.79,31.58-2.76,10.57-.97,21.15-1.8,31.55-2.76.11,0,.24-.07.18.05-.02.03-.09.08-.13.13-1.1,1.25-2.1,3.02-2.05,5.36.06,2.57,1.13,4.19,2.35,5.51Z"/>
  <path class="cls-3" d="M68.95,64.75c1.41,0,2.54.59,3.29,1.34.72.72,1.36,1.82,1.37,3.26,0,2.04-1.3,3.59-2.71,4.22-1.96.88-4.01.21-5.16-.94-.82-.82-1.56-2.06-1.37-3.79.05-.45.21-.97.38-1.34.64-1.4,2.01-2.75,4.2-2.76Z"/>
  <path class="cls-2" d="M111.12,75.85c-1.22,7.45-4.05,13.56-7.81,18.58-2.53,3.38-5.42,6.24-8.8,8.77-5,3.75-11.09,6.51-18.58,7.76,0-.4.16-.8.25-1.21.09-.42.16-.84.28-1.24,8.95-1.69,15.8-5.71,21.14-11.05,5.34-5.34,9.38-12.15,11.07-21.09.81-.16,1.57-.36,2.38-.53.04,0,.07-.04.08,0Z"/>
  <path class="cls-2" d="M27.84,75.85c.82.18,1.63.36,2.43.56,1.69,8.93,5.74,15.73,11.07,21.06,5.33,5.33,12.15,9.36,21.11,11.02.18.83.38,1.64.56,2.48-4.97-.79-9.34-2.34-13.2-4.37-3.82-2.02-7.2-4.52-10.11-7.43-2.88-2.88-5.43-6.21-7.46-10.09-1.48-2.84-2.79-5.98-3.67-9.51-.3-1.2-.61-2.53-.73-3.72Z"/>
  <path class="cls-2" d="M63.94,75.34c1.02.88,2.28,1.51,3.89,1.74,1.74.26,3.38-.12,4.65-.76,1.22-.61,2.21-1.46,2.98-2.63.76-1.15,1.32-2.54,1.32-4.3,0-3.43-1.93-5.82-4.25-7-1.25-.64-2.92-1.04-4.68-.78-1.6.24-2.86.87-3.89,1.72,0,.04-.07.08-.05,0,1.83-21.12,3.7-42.2,5.51-63.33.08.31.1.64.13.96.92,10.27,1.76,20.64,2.68,30.95.95,10.63,1.87,21.27,2.78,31.91,2.65.28,5.31.49,7.96.73,7.97.73,15.97,1.36,23.97,2.07,10.64.95,21.31,1.86,31.96,2.78-2.65.27-5.31.49-7.96.73-2.66.24-5.32.46-7.99.68-15.95,1.32-31.93,2.85-47.91,4.17-1.87,21.26-3.75,42.64-5.56,63.87,0,.04-.04,0-.05-.03-1.81-20.38-3.49-40.99-5.36-61.44-.06-.67-.15-1.35-.15-2,0,0-.07-.12.03-.05Z"/>
  <path class="cls-1" d="M64.52,21.31c-.34,1.4-.64,2.83-.99,4.22-5.46.78-10.24,2.37-14.41,4.55-4.15,2.17-7.79,4.88-10.92,8.01-1.55,1.55-3.04,3.27-4.37,5.11-3.96,5.44-7,12.03-8.12,20.28-1.42.33-2.85.64-4.25.99.29-1.13.71-2.93.03-4.12-.31-.53-.84-.81-1.44-1.01-.59-.2-1.3-.27-1.87-.58-.18-.1-.57-.37-.61-.56-.03-.14.07-.47.13-.71.37-1.54.78-3.1,1.24-4.53,1.33-.57,2.31.43,3.67.33,1.26-.1,1.85-1.17,2.28-2.07.42-.88.96-2.37.35-3.44-.53-.94-1.63-1.2-2.45-1.87-.26-.22-.48-.44-.58-.78.69-1.37,1.52-2.82,2.38-4.17.12-.19.26-.48.38-.53.27-.12.7.04.88.1,1.09.38,1.94,1.44,3.26,1.19,1.1-.21,1.88-1.24,2.45-2.05.33-.46.63-.98.76-1.49.45-1.82-1.18-2.48-1.92-3.54-.15-.22-.32-.55-.3-.81.01-.14.06-.2.18-.33,1.04-1.14,2.01-2.11,3.16-3.16.17-.16.35-.4.53-.43.38-.05.79.28,1.04.48.72.59,1.45,1.78,2.68,1.82.94.03,1.74-.5,2.33-.94.67-.49,1.18-.92,1.59-1.64.24-.41.36-.79.3-1.29-.1-.89-.65-1.51-1.01-2.23-.2-.4-.37-.84-.28-1.37,1.31-.89,2.6-1.62,4.07-2.4.22-.12.45-.3.61-.3.24-.01.53.24.71.43.95.98,1.12,2.7,2.78,2.86.71.07,1.31-.11,1.92-.33,1.06-.38,2.18-.95,2.6-1.9.28-.62.17-1.22,0-1.9-.15-.59-.41-1.19-.33-1.92.01-.14.05-.37.15-.48.09-.1.53-.21.73-.28,1.21-.39,2.39-.65,3.67-.96.1-.02.19-.08.3-.1.11-.02.22-.02.33-.05.35-.12.63.35.78.66.17.33.27.7.35,1.01.21.78.42,1.47.83,1.9.99,1,2.94.75,4.4.33ZM117.09,53.25c-1.11.19-1.89-.24-2.43-.94-.47-.61-.84-1.47-1.09-2.38-.27-1.01-.18-2,.51-2.65.53-.5,1.56-.89,2.15-1.42.2-.17.49-.49.48-.73,0-.07-.06-.2-.13-.33-.12-.22-.23-.4-.33-.58-.28-.53-.57-1.05-.83-1.49-.4-.66-.85-1.49-1.32-2.15-.06-.08-.04-.09-.13-.13-.26-.13-.68-.01-.99.1-.84.32-1.54,1.01-2.4,1.16-.78.14-1.35-.16-1.82-.51-.48-.35-.86-.82-1.16-1.21-.31-.4-.69-.96-.88-1.49-.25-.7-.19-1.38.1-1.92.25-.46.64-.84,1.09-1.29.3-.3.98-.89.94-1.47-.02-.23-.25-.39-.43-.58-.98-1.06-1.88-1.94-2.91-2.91-.17-.16-.34-.41-.56-.43-.25-.03-.65.18-.86.33-.24.17-.42.4-.61.58-.82.82-1.68,1.74-3.19,1.21-.58-.2-1.05-.5-1.52-.86-.45-.35-.86-.71-1.21-1.16-.33-.42-.65-1-.53-1.8.14-.9.81-1.6,1.14-2.43.08-.21.28-.72.15-1.01-.05-.12-.35-.27-.53-.38-.82-.51-1.56-.96-2.35-1.39-.19-.11-.38-.24-.58-.35-.17-.09-.41-.18-.63-.3-.23-.13-.48-.31-.63-.3-.28.01-.64.38-.83.63-.66.85-.95,2.03-1.97,2.48-.85.37-1.95.08-2.63-.18-.79-.29-1.54-.7-2.02-1.16-.63-.6-.79-1.38-.58-2.38.08-.38.22-.75.33-1.26.08-.39.15-1.11-.08-1.37-.08-.1-.57-.22-.73-.28-.41-.14-.76-.22-1.14-.33-.67-.2-1.34-.34-2-.51-.29-.07-1.23-.4-1.44-.25-.47.32-.72,1.05-.91,1.77-.19.73-.39,1.43-.83,1.85-1.04.98-3.02.61-4.37.25.31,1.42.65,2.8.96,4.22,4.12.54,7.86,1.64,11.15,3.03,1.12.47,2.23.94,3.26,1.49,6.21,3.32,11.33,7.65,15.32,13.12,3.98,5.45,7.02,12.08,8.14,20.3.7.16,1.41.34,2.12.51.72.16,1.45.34,2.15.45-.48-1.36-.71-3.46.23-4.45.41-.43,1.12-.66,1.87-.86.31-.08.69-.17,1.04-.33.29-.14.7-.41.73-.66.02-.16-.1-.42-.15-.66-.06-.26-.11-.51-.15-.68-.35-1.39-.64-2.69-1.11-3.87-1.01-.41-1.93.14-2.86.3ZM44.55,45.13c2.48,3.93,5.01,7.9,7.46,11.81.09.15.17.32.3.43,1.38-.31,2.73-.64,4.12-.94.34-1.42.67-2.85.99-4.3-4.65-2.95-9.32-5.88-13.98-8.82-.02,0-.03,0-.03.03.4.58.76,1.2,1.14,1.79ZM113.19,75.34c-.79,5.42-2.35,10.18-4.55,14.31-4.38,8.24-10.61,14.52-18.89,18.84-4.16,2.17-8.89,3.79-14.34,4.55-.33,1.39-.65,2.78-.96,4.2,1.45-.38,3.41-.62,4.35.35.4.42.61,1.12.81,1.87.14.53.48,1.65.99,1.72.17.02.42-.1.66-.15.12-.03.24-.02.35-.05,1.23-.3,2.37-.61,3.57-.99.21-.06.48-.1.61-.23.2-.2.2-.73.15-1.11-.15-1.11-.83-2.22-.25-3.31.5-.96,1.9-1.59,3.06-1.92.41-.12.95-.22,1.47-.15,1.46.19,1.82,1.56,2.48,2.5.18.26.55.76.91.76.11,0,.42-.17.63-.28.64-.33,1.25-.68,1.79-1.01.64-.39,1.51-.87,2.15-1.31.09-.06.08-.04.13-.13.09-.18.05-.46,0-.66-.28-1.2-1.38-1.92-1.29-3.26.04-.61.38-1.15.73-1.54.36-.41.8-.75,1.24-1.06.42-.3.94-.62,1.49-.78,1.52-.45,2.28.58,3.03,1.31.38.37.87.9,1.44.86.13-.01.33-.2.53-.38,1.1-1,1.95-1.91,2.96-2.96.17-.17.39-.39.4-.58.03-.38-.3-.76-.51-1.01-.22-.27-.5-.55-.73-.78-.47-.47-1.07-1.06-1.06-1.97,0-1.01.64-1.85,1.09-2.43.49-.64,1.15-1.36,1.92-1.62,1.37-.45,2.36.64,3.34,1.06.29.13.84.26,1.09.15.12-.05.27-.37.38-.53.15-.23.27-.45.35-.58.59-.96,1.04-1.67,1.54-2.65.05-.1.12-.2.18-.3.07-.13.28-.52.28-.66,0-.24-.28-.5-.48-.68-1.05-.99-2.78-1.13-2.81-3.01,0-.7.19-1.32.43-1.92.42-1.04,1.03-2.25,2.2-2.48,1.35-.26,2.6.84,3.92.3.55-1.66,1.03-3.38,1.39-5.23-.45-.74-1.53-.86-2.4-1.14-.57-.18-1.1-.42-1.44-.91-.66-.96-.47-2.78-.13-3.94-1.35.26-2.79.65-4.2.94ZM21.36,78.4c-.34.47-.87.7-1.47.88-.57.18-1.24.27-1.77.58-.2.12-.52.31-.56.56-.02.15.07.46.13.68.16.68.35,1.38.51,1.97.25.93.47,1.74.76,2.55.77.35,1.56.04,2.3-.15.78-.2,1.63-.3,2.3.13.65.41,1.03,1.14,1.37,1.9.34.75.72,1.61.53,2.63-.18.96-.8,1.36-1.49,1.77-.65.39-1.62.84-1.74,1.57.4.81.79,1.56,1.29,2.4.39.64.81,1.4,1.24,2.05.08.13.14.19.25.23.41.14,1.02-.13,1.34-.3.74-.39,1.38-1.01,2.38-1.01.48,0,.93.19,1.29.43.62.42,1.19,1.09,1.64,1.77.41.62.95,1.61.63,2.58-.35,1.06-1.39,1.55-1.95,2.43-.1.16-.29.4-.25.73.01.13.07.18.18.3.91,1.01,1.71,1.83,2.68,2.73.2.19.53.51.76.71.13.11.17.15.3.15.34,0,.65-.2.91-.4.74-.56,1.31-1.51,2.2-1.8.59-.19,1.33-.01,1.77.18.38.16.73.39,1.04.61.65.46,1.23.95,1.64,1.64.23.39.39.77.35,1.29-.1,1.41-1.45,2.09-1.31,3.64,1.31.87,2.64,1.67,4.1,2.4.2.1.47.3.63.3.21,0,.45-.21.56-.3.4-.35.63-.87.88-1.31.28-.48.55-.96.96-1.26,1.01-.75,2.57-.25,3.49.15.56.24.98.47,1.39.81.39.33.74.78.83,1.39.15.96-.42,1.89-.48,2.81-.02.29-.03.77.15.96.09.1.37.16.58.23.23.08.48.12.66.18,1.14.34,2.1.62,3.29.88.23.05.55.16.71.13.18-.03.4-.33.53-.56.4-.71.51-1.82.83-2.45.37-.73.99-1.13,1.92-1.24.93-.11,1.86.06,2.81.3-.31-1.42-.65-2.8-.96-4.22-2.74-.34-5.28-.96-7.66-1.74-7.09-2.35-12.85-6.05-17.55-10.75-1.56-1.56-3.01-3.24-4.35-5.06-4-5.4-7.02-11.95-8.19-20.1-1.39-.33-2.78-.64-4.17-.96.29,1.31.53,2.98-.2,3.99ZM82.32,51.55c-.29.19-.61.31-.86.56.33,1.43.66,2.86.99,4.3,1.34.32,2.7.64,4.07.94,2.96-4.66,5.92-9.33,8.85-14.03.01,0,.03-.02,0-.03-4.32,2.77-8.75,5.51-13.05,8.27ZM51.88,81.82c-2.84,4.47-5.61,8.96-8.44,13.4,0,.03-.04.04,0,.05,0-.02,0-.03.03-.03,4.49-2.81,9.01-5.7,13.48-8.5.15-.09.32-.17.43-.3-.3-1.34-.63-2.66-.91-4.02-1.43-.32-2.86-.64-4.27-.99-.14.09-.22.24-.3.38ZM95.39,95.27s-.03,0-.03-.03c-2.72-4.3-5.44-8.67-8.17-12.92-.18-.29-.31-.61-.56-.86-1.4.32-2.79.65-4.2.96-.3,1.38-.62,2.73-.94,4.1,4.6,2.92,9.29,5.9,13.88,8.75Z"/>
</svg>